<?xml version="1.0" encoding="utf-8"?>
<!-- Generator: Adobe Illustrator 16.0.4, SVG Export Plug-In . SVG Version: 6.00 Build 0)  -->
<!DOCTYPE svg PUBLIC "-//W3C//DTD SVG 1.1//EN" "http://www.w3.org/Graphics/SVG/1.1/DTD/svg11.dtd">
<svg version="1.1" xmlns="http://www.w3.org/2000/svg" xmlns:xlink="http://www.w3.org/1999/xlink" x="0px" y="0px" width="100px"
	 height="100px" viewBox="0 0 100 100" enable-background="new 0 0 100 100" xml:space="preserve">
<g id="Layer_2">
	<path fill="#D5912B" d="M74.75,7.132L50,0.5L25.25,7.132L7.131,25.25L0.5,50l6.631,24.75L25.25,92.868L50,99.5l24.75-6.632
		l4.525-4.524c-0.27,0.064-0.583,0.167-0.994,0.327c-0.233-1.986,1.43-2.623,2.547-1.881l5.691-5.691
		c-0.267-0.434-0.628-0.772-1.227-0.873c0.172-1.113,1.67-0.684,2.53-0.43l5.046-5.046L99.5,50l-6.631-24.75L74.75,7.132z
		 M22.15,56.993c-1.604,0.251-3.135-0.821-2.105-2.114c1.748,1.414,0.945-0.043,2.805,0.35C23.15,56.355,22.301,56.322,22.15,56.993
		z M40.391,93.955c0.455-0.833,1.895-0.682,2.809-1.058C42.84,94.539,41.426,94.328,40.391,93.955z M73.369,84.452
		C74.24,83.076,73.875,85.617,73.369,84.452L73.369,84.452z M71.26,45.38c-1.502-0.495,0.164-2.563-0.693-3.168
		c0.818-0.917,2.906-0.126,3.504,0.351C72.42,42.789,72.141,44.383,71.26,45.38z M74.42,66.852c0.061-0.999,0.639-1.469,0.701-2.464
		C76.629,64.457,75.539,67.156,74.42,66.852z M75.826,90.432c-0.855-0.816,0.541-0.941,0.695-1.761
		C77.33,88.949,76.863,90.852,75.826,90.432z M83.539,55.585c-0.104-1.98,3.24-0.503,4.207-1.409c0.41,0.418,0.396,1.248,0.35,2.115
		C85.926,55.919,84.205,57.252,83.539,55.585z M87.746,65.441c0.547,0.512,0.742,1.371,0.701,2.464
		C87.117,67.811,87.33,66.426,87.746,65.441z M88.096,41.15c0.572-0.094,0.607,0.335,1.055,0.354
		C89.289,42.187,87.553,42.02,88.096,41.15z"/>
</g>
<g id="Layer_1">
	<path fill="#F3F0EA" d="M77.484,31.284c-0.127-2.172-1.082-4.3-2.62-5.837l-0.375-0.374c-1.616-1.618-3.742-2.507-5.981-2.507
		c-2.119,0-4.095,0.809-5.565,2.279l-34.479,34.48c-2.662,2.66-5.394,13.471-5.915,15.611c-0.142,0.584,0.03,1.198,0.455,1.623
		l0.374,0.372c0.325,0.329,0.765,0.504,1.215,0.504c0.123,0,0.247-0.012,0.37-0.041c2.184-0.479,13.211-3.013,15.886-5.687
		l34.481-34.478C76.855,35.703,77.621,33.592,77.484,31.284z M61.952,35.375c0.168,0.168,0.388,0.252,0.607,0.252
		s0.44-0.084,0.608-0.252l2.591-2.591l1.63,1.628L37.321,64.48l-1.628-1.63L60.68,37.864c0.336-0.336,0.336-0.88,0-1.215
		c-0.335-0.336-0.879-0.336-1.215,0L34.478,61.635l-1.732-1.731l30.066-30.066l1.732,1.731l-2.592,2.592
		C61.616,34.497,61.616,35.04,61.952,35.375z M40.268,67.426l-1.731-1.732l30.066-30.066l1.732,1.732L40.268,67.426z M27.896,68.656
		l3.513,3.513c-1.628,0.488-3.345,0.952-4.946,1.346C26.887,71.942,27.381,70.256,27.896,68.656z M33.259,71.59l-4.751-4.753
		c0.852-2.424,1.713-4.411,2.386-5.083l0.636-0.636l2.339,2.34c0,0,0,0,0.001,0.002c0.001,0,0.001,0,0.001,0l5.181,5.181
		l-0.636,0.637C37.747,69.946,35.728,70.779,33.259,71.59z M72.897,34.798l-1.347,1.347l-5.183-5.182l-0.001-0.001
		c0,0-0.001,0-0.001,0l-2.339-2.339l1.348-1.347c0.82-0.821,1.934-1.272,3.134-1.272c1.322,0,2.584,0.533,3.551,1.5l0.375,0.374
		c0.95,0.95,1.54,2.266,1.619,3.609C74.13,32.799,73.72,33.976,72.897,34.798z"/>
</g>
</svg>
