<?xml version="1.0" encoding="utf-8"?>
<!-- Generator: Adobe Illustrator 16.0.4, SVG Export Plug-In . SVG Version: 6.00 Build 0)  -->
<!DOCTYPE svg PUBLIC "-//W3C//DTD SVG 1.1//EN" "http://www.w3.org/Graphics/SVG/1.1/DTD/svg11.dtd">
<svg version="1.1" xmlns="http://www.w3.org/2000/svg" xmlns:xlink="http://www.w3.org/1999/xlink" x="0px" y="0px" width="100px"
	 height="100px" viewBox="0 0 100 100" enable-background="new 0 0 100 100" xml:space="preserve">
<g id="Layer_2">
	<path fill="#D5912B" d="M22.746,90.364c0.399-0.245,0.847-0.44,1.375-0.554c-0.183,0.46-0.416,0.87-0.687,1.242l1.815,1.815
		L50,99.5l24.75-6.632L92.869,74.75L99.5,50l-6.631-24.75L74.75,7.132L50,0.5L25.25,7.132L7.131,25.25L0.5,50l6.631,24.75
		L22.746,90.364z M79.85,33.626c-0.148,0.648-0.229,1.37-1.061,1.332C78.368,34.506,78.816,33.419,79.85,33.626z M51.721,31.495
		c-0.414,0.563-0.304,1.649-1.591,1.331C49.916,31.452,50.896,31.111,51.721,31.495z M49.069,37.354
		c1.216,0.143,1.098,1.035,2.385,0.533c0.191,0.812-0.271,0.97-0.261,1.599c-0.879-0.634-2.032,0.218-2.655-0.267
		C48.512,38.392,49.37,38.457,49.069,37.354z M31.022,79.959c0.895-0.063,1.373,0.988,0.796,1.598
		c-0.476,0.034-0.562-0.326-1.062-0.268C30.535,80.538,31.129,80.599,31.022,79.959z M29.43,61.585c0.268,0,0.529,0,0.795,0
		c0.521,0.598,0.23,2.002,0,2.663c-0.747,0.22-0.687-0.376-1.326-0.268C28.638,62.743,29.242,62.375,29.43,61.585z M26.511,84.752
		c0.402,0.534,0.064,2.037-0.798,2.129C25.312,86.347,25.65,84.846,26.511,84.752z M21.203,79.427
		C22.354,79.537,20.924,80.972,21.203,79.427L21.203,79.427z M17.222,80.226c0.957-0.252,0.37,1.049,0.531,1.598
		C17.074,81.793,17.224,80.932,17.222,80.226z M14.04,68.775c-0.372,1.468-1.519,0.869-2.125,0
		C12.098,67.803,13.742,68.293,14.04,68.775z"/>
</g>
<g id="Layer_1">
	<g>
		<path fill="#F3F0EA" d="M71.635,22.923H28.366c-3.239,0-5.866,2.627-5.866,5.866v42.423c0,3.238,2.627,5.864,5.866,5.865h43.269
			c3.239,0,5.865-2.627,5.865-5.865l0,0V28.789C77.5,25.55,74.874,22.923,71.635,22.923z M28.366,26.308h43.269
			c1.37,0,2.48,1.111,2.48,2.481h0.001v5.135H25.885v-5.135C25.885,27.419,26.996,26.308,28.366,26.308z M71.635,73.692H28.366
			c-1.37,0-2.481-1.111-2.481-2.48V35.615h48.231v35.597C74.116,72.581,73.005,73.692,71.635,73.692z"/>
		<path fill="#F3F0EA" d="M28.947,31.385h0.846c0.466,0,0.846-0.378,0.846-0.845c0-0.469-0.38-0.847-0.846-0.847h-0.846
			c-0.468,0-0.846,0.378-0.846,0.847C28.101,31.007,28.479,31.385,28.947,31.385z"/>
		<path fill="#F3F0EA" d="M34.87,31.385h0.846c0.467,0,0.846-0.378,0.846-0.845c0-0.469-0.379-0.847-0.846-0.847H34.87
			c-0.468,0-0.846,0.378-0.846,0.847C34.024,31.007,34.402,31.385,34.87,31.385z"/>
		<path fill="#F3F0EA" d="M40.793,31.385h0.847c0.467,0,0.846-0.378,0.846-0.845c0-0.469-0.379-0.847-0.846-0.847h-0.847
			c-0.468,0-0.846,0.378-0.846,0.847C39.947,31.007,40.325,31.385,40.793,31.385z"/>
		<path fill="#F3F0EA" d="M34.266,55.219l4.347-5.364c0.295-0.361,0.24-0.896-0.124-1.189c-0.362-0.293-0.896-0.238-1.189,0.124
			l-4.779,5.897c-0.251,0.312-0.251,0.756,0,1.066l7.757,9.572c0.166,0.204,0.411,0.312,0.657,0.312
			c0.187,0,0.374-0.059,0.531-0.188c0.362-0.294,0.419-0.827,0.124-1.19L34.266,55.219z"/>
		<path fill="#F3F0EA" d="M40.277,45.115l-0.773,0.953c-0.295,0.363-0.239,0.896,0.124,1.19c0.157,0.128,0.346,0.189,0.532,0.189
			c0.246,0,0.491-0.107,0.658-0.312l0.773-0.955c0.294-0.361,0.237-0.894-0.125-1.188S40.572,44.752,40.277,45.115z"/>
		<path fill="#F3F0EA" d="M59.924,45.115c-0.294-0.363-0.828-0.418-1.188-0.125c-0.363,0.293-0.419,0.827-0.124,1.19l7.324,9.038
			l-7.324,9.04c-0.295,0.364-0.239,0.896,0.124,1.19c0.156,0.128,0.344,0.188,0.532,0.188c0.247,0,0.49-0.107,0.656-0.312
			l7.756-9.572c0.253-0.311,0.253-0.755,0-1.066L59.924,45.115z"/>
		<path fill="#F3F0EA" d="M53.675,50.191l-7.757,9.572c-0.294,0.363-0.238,0.896,0.125,1.19c0.157,0.127,0.345,0.188,0.532,0.188
			c0.246,0,0.49-0.106,0.657-0.312l7.757-9.572c0.294-0.363,0.237-0.897-0.125-1.191C54.502,49.773,53.97,49.829,53.675,50.191z"/>
	</g>
</g>
</svg>
