<?xml version="1.0" encoding="utf-8"?>
<!-- Generator: Adobe Illustrator 16.0.4, SVG Export Plug-In . SVG Version: 6.00 Build 0)  -->
<!DOCTYPE svg PUBLIC "-//W3C//DTD SVG 1.1//EN" "http://www.w3.org/Graphics/SVG/1.1/DTD/svg11.dtd">
<svg version="1.1" id="Layer_1" xmlns="http://www.w3.org/2000/svg" xmlns:xlink="http://www.w3.org/1999/xlink" x="0px" y="0px"
	 width="41px" height="41px" viewBox="0 0 41 41" enable-background="new 0 0 41 41" xml:space="preserve">
<path fill="#D5912B" d="M39.78,17.814c-0.042,0.011-0.082,0.026-0.125,0.038c-0.001-0.132,0.016-0.249,0.04-0.357L37.821,10.5
	L30.5,3.179L20.5,0.5l-10,2.679L3.179,10.5L0.5,20.5l0.444,1.654c0.758,0.223,1.557,0.403,2.534,0.406
	c-0.715,0.199-1.582,0.22-2.403,0.082L3.179,30.5l6.133,6.133c0.283-0.323,0.805-0.51,1.129-0.183
	c-0.071,0.312-0.363,0.572-0.683,0.629L10.5,37.82l10,2.68l10-2.68l7.321-7.32l2.679-10L39.78,17.814z M5.707,27.594
	c-0.03-1.914,2.375-0.744,3.444-0.649C8.421,28.377,7.277,27.728,5.707,27.594z M10.255,19.944c0.488-0.228,0.602,0.093,0.313,0.419
	C10.292,20.395,10.226,20.218,10.255,19.944z M11.305,29.105c-0.929,0.212-0.629-0.809-1.291-0.861
	c0.182-0.325,0.69-0.316,1.075-0.432C11.026,28.467,11.779,28.651,11.305,29.105z M11.922,9.694
	c0.208-0.976,1.962-0.799,2.815-0.524C14.615,10.133,12.688,10.024,11.922,9.694z M17.764,7.5c-0.103-1.79,4.898-4.161,4.092-0.214
	C20.668,7.087,19.606,7.377,17.764,7.5z M22.141,26.535c-0.646,0.092-0.753-0.361-0.729-0.94c0.32,0.025,0.589,0.106,0.833,0.208
	C22.243,26.08,22.284,26.4,22.141,26.535z M25.163,34.276c-0.484-0.364-0.047-1.378,0-1.884
	C25.744,32.581,25.174,33.708,25.163,34.276z M34.65,8.228c0.175,0.488-0.168,1.271-0.729,1.361
	C33.951,8.695,33.875,8.257,34.65,8.228z M34.442,11.261C34.759,10.875,34.794,11.579,34.442,11.261L34.442,11.261z M31.976,32.562
	c0.058-0.947,1.475-0.532,1.938-1.076C34.368,32.096,32.68,32.397,31.976,32.562z M34.442,14.608
	c-0.547-0.199-0.395-1.668,0.104-1.777c0.138,0.036,0.163,0.184,0.312,0.209C34.893,13.736,34.553,14.058,34.442,14.608z
	 M36.006,15.969C36.267,15.562,36.158,16.316,36.006,15.969L36.006,15.969z M37.674,14.504c0.186-0.034,0.187,0.585-0.104,0.419
	C37.525,14.705,37.642,14.646,37.674,14.504z M38.092,16.806c-0.175,0-0.348,0-0.521,0c-0.068-0.418,0.276-0.42,0.626-0.418
	C38.114,16.48,38.084,16.625,38.092,16.806z M38.509,16.806c-0.055-0.083-0.108-0.169-0.104-0.314
	c0.094-0.081,0.235-0.112,0.417-0.104C38.85,16.662,38.783,16.838,38.509,16.806z"/>
<g>
	<g>
		<path fill="#F3F0EA" d="M32.621,27.425c0,1.429-1.158,2.586-2.585,2.586H10.964c-1.428,0-2.585-1.157-2.585-2.586v-13.85
			c0-1.428,1.157-2.586,2.585-2.586h19.072c1.427,0,2.585,1.158,2.585,2.586V27.425L32.621,27.425z M31.13,13.575
			c0-0.604-0.49-1.094-1.094-1.094H10.964c-0.604,0-1.094,0.49-1.094,1.094v13.85c0,0.604,0.49,1.094,1.094,1.094h19.072
			c0.604,0,1.094-0.489,1.094-1.094V13.575L31.13,13.575z"/>
	</g>
	<g>
		<g>
			<path fill="#F3F0EA" d="M20.187,22.712c-0.084,0-0.167-0.028-0.236-0.084l-6.252-5.09c-0.16-0.13-0.184-0.365-0.054-0.525
				c0.13-0.159,0.365-0.184,0.525-0.054l6.02,4.901l5.873-4.678c0.163-0.128,0.397-0.102,0.524,0.059
				c0.128,0.162,0.102,0.396-0.06,0.524l-6.107,4.865C20.351,22.686,20.269,22.712,20.187,22.712z"/>
		</g>
		<g>
			<path fill="#F3F0EA" d="M14.778,24.298c-0.084,0-0.168-0.029-0.239-0.088c-0.158-0.131-0.179-0.366-0.047-0.524l0.163-0.195
				c0.132-0.157,0.367-0.18,0.525-0.047c0.158,0.132,0.18,0.367,0.047,0.524l-0.163,0.195
				C14.991,24.252,14.885,24.298,14.778,24.298z"/>
		</g>
		<g>
			<path fill="#F3F0EA" d="M15.731,23.156c-0.088,0-0.177-0.03-0.248-0.094c-0.154-0.138-0.168-0.373-0.031-0.527l2.098-2.363
				c0.137-0.154,0.373-0.168,0.527-0.031c0.154,0.137,0.167,0.373,0.031,0.526L16.01,23.03
				C15.936,23.114,15.833,23.156,15.731,23.156z"/>
		</g>
		<g>
			<path fill="#F3F0EA" d="M25.057,23.848c-0.106,0-0.214-0.046-0.287-0.134l-2.244-2.684c-0.132-0.158-0.11-0.393,0.048-0.525
				c0.159-0.132,0.394-0.111,0.525,0.047l2.243,2.684c0.133,0.158,0.112,0.394-0.047,0.526
				C25.226,23.819,25.14,23.848,25.057,23.848z"/>
		</g>
	</g>
</g>
</svg>
