<?xml version="1.0" encoding="utf-8"?>
<!-- Generator: Adobe Illustrator 16.0.4, SVG Export Plug-In . SVG Version: 6.00 Build 0)  -->
<!DOCTYPE svg PUBLIC "-//W3C//DTD SVG 1.1//EN" "http://www.w3.org/Graphics/SVG/1.1/DTD/svg11.dtd">
<svg version="1.1" id="Layer_1" xmlns="http://www.w3.org/2000/svg" xmlns:xlink="http://www.w3.org/1999/xlink" x="0px" y="0px"
	 width="41px" height="41px" viewBox="0 0 41 41" enable-background="new 0 0 41 41" xml:space="preserve">
<path fill="#D5912B" d="M0.5,20.5l0.397,1.482c0.46,0.033,0.85,0.188,1.838-0.288c-0.1,0.359-0.611,0.303-0.631,0.74
	c0.424,0.076,0.875,0.125,1.374,0.126c-0.406,0.113-0.862,0.163-1.329,0.164c0.01,0.034,0.011,0.06,0.025,0.098
	c-0.51-0.078-0.731-0.082-0.882-0.154c-0.072-0.009-0.146-0.013-0.217-0.025L3.179,30.5l4.454,4.454
	c0.209-0.153,0.573,0.212,0.292,0.292L10.5,37.82l10,2.68l10-2.68l7.321-7.32l2.679-10l-0.72-2.686
	c-0.042,0.012-0.082,0.026-0.125,0.038c0-0.133,0.016-0.249,0.04-0.357L37.821,10.5L30.5,3.18l-10-2.68l-10,2.68L3.179,10.5
	L0.5,20.5z M2.173,23.104c0.286,0.183,0.289,0.648,0.844,0.564C2.903,24.37,1.929,23.686,2.173,23.104z M38.821,16.388
	c0.029,0.274-0.038,0.451-0.313,0.418c-0.054-0.083-0.108-0.169-0.103-0.313C38.498,16.411,38.64,16.38,38.821,16.388z
	 M38.196,16.388c-0.082,0.093-0.112,0.237-0.104,0.418c-0.175,0-0.349,0-0.521,0C37.501,16.388,37.847,16.386,38.196,16.388z
	 M37.674,14.504c0.186-0.033,0.187,0.585-0.104,0.42C37.525,14.705,37.642,14.646,37.674,14.504z M36.006,15.969
	C36.267,15.562,36.158,16.316,36.006,15.969L36.006,15.969z M34.441,14.609c-0.546-0.199-0.395-1.669,0.105-1.778
	c0.137,0.036,0.164,0.184,0.312,0.209C34.893,13.736,34.552,14.059,34.441,14.609z M34.441,11.261
	C34.759,10.875,34.793,11.579,34.441,11.261L34.441,11.261z M33.921,9.588c0.03-0.893-0.046-1.332,0.729-1.361
	C34.825,8.716,34.482,9.499,33.921,9.588z M33.915,7.883C33.972,7.041,35.083,8.152,33.915,7.883L33.915,7.883z M25.163,32.394
	c0.582,0.188,0.01,1.314,0,1.883C24.679,33.911,25.116,32.898,25.163,32.394z M22.245,25.803c-0.002,0.278,0.039,0.598-0.104,0.732
	c-0.647,0.092-0.754-0.361-0.729-0.94C21.731,25.62,22,25.7,22.245,25.803z M1.332,19.157c1.068-1.368-0.565-0.685,0.56-2.255
	c0.804,0.416,0.135,0.93,0.844,1.692C1.673,18.187,2.199,19.368,1.332,19.157z M4.138,24.232
	C4.994,23.462,3.371,25.089,4.138,24.232L4.138,24.232z M15.374,37.762C14.06,39.062,14.146,37.053,15.374,37.762L15.374,37.762z
	 M13.41,34.379c0.53-0.313,0.985-0.703,1.687-0.846C14.864,34.182,13.979,34.916,13.41,34.379z M14.737,9.169
	c-0.122,0.963-2.049,0.854-2.815,0.524C12.131,8.719,13.884,8.895,14.737,9.169z M10.255,19.944
	c0.488-0.228,0.602,0.093,0.313,0.419C10.292,20.395,10.226,20.218,10.255,19.944z M8.634,33.533
	c0.065-0.113,0.101-0.176,0.119-0.203c-0.053,0.094-0.314,0.545-0.37,0.641C8.408,33.924,8.484,33.797,8.634,33.533z M7.793,34.379
	C7.026,33.522,8.644,35.147,7.793,34.379L7.793,34.379z M6.107,11.829C6.805,10.73,6.516,12.765,6.107,11.829L6.107,11.829z
	 M4.422,15.776c-0.121,0.627-1.49,0.221-1.686,0C2.992,15.006,3.613,16.171,4.422,15.776z"/>
<g>
	<path fill="#F3F0EA" d="M20.99,18.173c-1.43,0-2.771,0.764-3.502,1.994c-0.105,0.177-0.046,0.406,0.131,0.511
		c0.06,0.036,0.125,0.053,0.19,0.053c0.127,0,0.251-0.065,0.321-0.183c0.597-1.005,1.692-1.63,2.86-1.63
		c0.206,0,0.373-0.166,0.373-0.372C21.363,18.34,21.196,18.173,20.99,18.173z"/>
	<path fill="#F3F0EA" d="M17.475,21.035c-0.201-0.046-0.401,0.077-0.448,0.278c-0.068,0.291-0.106,0.473-0.106,0.801
		c0,0.206,0.167,0.373,0.373,0.373s0.373-0.168,0.373-0.373c0-0.247,0.026-0.372,0.086-0.63
		C17.8,21.282,17.675,21.082,17.475,21.035z"/>
	<path fill="#F3F0EA" d="M30.08,14.16h-1.829l-1.497-2.624c-0.016-0.026-0.032-0.046-0.051-0.07c-0.7-0.939-1.726-1.408-3.133-1.408
		h-6.269l-0.501,0.005c-0.857,0-1.769,0.12-2.654,1.44c-0.018,0.026-0.034,0.048-0.048,0.077l-1.289,2.58h-1.801
		c-1.503,0-2.63,1.193-2.63,2.576v11.612c0,1.396,1.153,2.594,2.63,2.594H30.08c1.367,0,2.541-1.102,2.541-2.594V16.736
		C32.621,15.258,31.471,14.16,30.08,14.16z M11.009,15.651h2.263c0.283,0,0.542-0.147,0.668-0.401l1.472-2.949
		c0.479-0.698,0.809-0.732,1.39-0.732l6.769,0.003c0.923,0,1.498,0.225,1.911,0.759l1.688,2.957c0.132,0.233,0.38,0.364,0.648,0.364
		h2.263c0.669,0,1.049,0.572,1.049,1.085v2.272H25.06c-0.938-1.514-2.608-2.526-4.515-2.526c-1.907,0-3.579,1.013-4.516,2.526H9.871
		v-2.272C9.871,16.14,10.417,15.651,11.009,15.651z M20.544,26.365c-2.52,0-4.568-2.05-4.568-4.568s2.049-4.568,4.568-4.568
		c2.519,0,4.569,2.049,4.569,4.568C25.113,24.315,23.063,26.365,20.544,26.365z M9.871,19.754h5.769
		c-0.264,0.63-0.41,1.319-0.41,2.043c0,0.877,0.218,1.703,0.596,2.433H9.871V19.754z M30.08,29.451H11.009
		c-0.646,0-1.138-0.534-1.138-1.103v-3.373h6.198c0.069,0,0.129-0.023,0.185-0.057c0.968,1.326,2.528,2.192,4.291,2.192
		c1.738,0,3.279-0.842,4.249-2.136h1.719c0.206,0,0.373-0.167,0.373-0.373s-0.167-0.373-0.373-0.373h-1.248
		c0.378-0.729,0.596-1.556,0.596-2.433c0-0.724-0.146-1.413-0.41-2.043h5.68v4.476h-2.007c-0.207,0-0.373,0.167-0.373,0.373
		s0.166,0.373,0.373,0.373h2.007v3.373C31.13,28.892,30.704,29.451,30.08,29.451z"/>
	<path fill="#F3F0EA" d="M28.004,24.229h-0.373c-0.206,0-0.373,0.167-0.373,0.373s0.167,0.373,0.373,0.373h0.373
		c0.206,0,0.372-0.167,0.372-0.373S28.21,24.229,28.004,24.229z"/>
</g>
</svg>
