<?xml version="1.0" encoding="utf-8"?>
<!-- Generator: Adobe Illustrator 16.0.4, SVG Export Plug-In . SVG Version: 6.00 Build 0)  -->
<!DOCTYPE svg PUBLIC "-//W3C//DTD SVG 1.1//EN" "http://www.w3.org/Graphics/SVG/1.1/DTD/svg11.dtd">
<svg version="1.1" xmlns="http://www.w3.org/2000/svg" xmlns:xlink="http://www.w3.org/1999/xlink" x="0px" y="0px" width="60px"
	 height="60px" viewBox="0 0 60 60" enable-background="new 0 0 60 60" xml:space="preserve">
<g id="light_background" display="none">
	<rect display="inline" fill="#F4F1EB" width="500" height="500"/>
</g>
<g id="dark_2_" display="none">
	<g id="logo_1_" display="inline">
		<path fill="#303538" d="M134.467,198.82c-0.883-0.644-1.698-0.957-2.498-0.957c-2.158,0-3.098,2.244-3.396,2.953
			c-0.88,2.02-1.769,4.984-2.569,8.563c-0.411,1.848-0.759,3.779-1.028,5.728c-0.28,1.908-0.413,3.968-0.413,6.514
			c0.018,2.286,0.248,4.642,0.487,6.856c0.204,1.878,0.46,4.346,0.629,6.827l0.029,0.425c0.139,2.138,0.28,4.364,0.514,6.496
			c0.157,1.777,0.357,3.531,0.552,5.244l0.163,1.429c0.422,3.916,0.877,7.582,1.275,10.807l0.121,0.992
			c0.862,6.816,1.562,11.434,1.571,11.492c0.145,0.945,0.901,1.678,1.849,1.783l0.224,0.012c1.081,0,1.979-0.826,2.088-1.924
			c0.006-0.047,0.466-4.725,0.974-11.564l0.083-1.168c0.228-3.178,0.49-6.791,0.709-10.619l0.088-1.512
			c0.106-1.689,0.213-3.407,0.281-5.161c0.068-2.079,0.236-4.246,0.398-6.337l0.033-0.419c0.147-1.943,0.36-4.022,0.682-6.744
			c0.127-1.075,0.59-3.343,1.039-5.54c0.449-2.197,0.913-4.476,1.104-5.846c0.145-1.063,0.363-2.244,0.573-3.419
			c0.452-2.48,0.877-4.825,0.756-6.313C140.57,204.672,136.558,200.361,134.467,198.82z"/>
		<path fill="#303538" d="M371.8,216.454c-0.278-1.925-0.62-3.814-1.028-5.628c-0.809-3.502-1.694-6.396-2.568-8.344
			c-0.608-1.429-1.837-2.321-3.189-2.321c-1.529,0-2.828,1.093-3.301,2.781c-0.461,1.654-1.322,4.736-1.86,8.362
			c-0.289,1.795-0.508,3.644-0.644,5.48c-0.177,2.055-0.337,4.069-0.295,6.183c0.035,2.197,0.283,4.47,0.549,6.596
			c0.219,1.807,0.49,4.193,0.68,6.591l0.029,0.366c0.165,2.055,0.33,4.181,0.407,6.236c0.065,1.725,0.171,3.437,0.277,5.114
			l0.089,1.382c0.219,3.708,0.467,7.192,0.703,10.276l0.088,1.252c0.508,6.684,0.963,11.244,0.975,11.303
			c0.095,0.945,0.814,1.725,1.742,1.877l0.349,0.023c1.033,0,1.913-0.756,2.072-1.783c0.006-0.047,0.697-4.559,1.565-11.232
			l0.13-1.016c0.396-3.129,0.845-6.696,1.27-10.488l0.165-1.464c0.195-1.654,0.396-3.348,0.544-5.038
			c0.242-2.155,0.39-4.364,0.531-6.508l0.018-0.277c0.165-2.409,0.425-4.837,0.626-6.673c0.236-2.161,0.473-4.476,0.49-6.72
			C372.213,220.316,372.077,218.291,371.8,216.454z"/>
		<path fill="#303538" d="M352.063,265.104c-3.195,0-5.8,2.598-5.8,5.799s2.604,5.799,5.8,5.799c3.2,0,5.805-2.598,5.805-5.799
			S355.264,265.104,352.063,265.104z"/>
		<path fill="#303538" d="M386.539,284.26c-6.779-1.594-13.76-2.043-20.521-2.49c-1.216-0.072-2.438-0.154-3.661-0.236
			c-7.718-0.533-15.366-0.816-22.712-0.816c-26.203,0-50.114,3.332-73.122,10.193c-5.451,1.666-10.665,2.516-15.957,2.586h-0.537
			h-0.585c-5.303-0.07-10.529-0.92-15.986-2.598c-22.984-6.85-46.898-10.182-73.104-10.182c-7.35,0-14.994,0.283-22.721,0.816
			c-1.22,0.082-2.439,0.164-3.662,0.248c-6.753,0.436-13.733,0.885-20.513,2.479c-4.795,1.146-6.835,3.744-6.614,8.457
			c0.174,3.615,0.839,7.135,1.479,10.547c0.195,1.029,0.387,2.057,0.567,3.084c0.133,0.768,0.411,2.373,1.816,2.904
			c5.796,2.244,6.862,7.312,7.996,12.662l0.263,1.24c1.748,8.043,3.667,16.605,6.201,24.885c4.293,14.033,11.729,22.477,23.542,26.6
			c1.166,0.295,11.846,2.965,27.567,2.965c8.888,0,17.767-0.852,26.382-2.527l0.222-0.049c6.903-2.408,12.711-6.873,18.283-14.09
			c8.188-10.617,14.297-22.051,18.148-33.969c1.157-3.59,2.433-6.141,4.146-8.279c1.807-2.279,4.134-3.543,6.52-3.578
			c2.433,0.035,4.771,1.299,6.578,3.59c1.695,2.115,3.006,4.748,4.14,8.279c3.856,11.93,9.963,23.352,18.147,33.957
			c5.558,7.205,11.404,11.693,18.384,14.113l0.225,0.061c8.558,1.652,17.397,2.492,26.273,2.492c16.459,0,27.543-2.965,27.75-3.023
			c11.646-4.076,19.069-12.508,23.356-26.541c2.516-8.207,4.376-16.451,6.213-24.896l0.26-1.24c1.128-5.35,2.19-10.406,7.978-12.639
			c1.418-0.543,1.701-2.148,1.831-2.916c0.183-1.027,0.378-2.055,0.573-3.096c0.632-3.412,1.293-6.932,1.464-10.535
			C393.384,288.004,391.341,285.406,386.539,284.26z M225.083,332.131c-1.893,6.934-4.06,12.449-6.815,17.361
			c-4.896,8.729-12.071,13.938-21.939,15.922c-5.896,1.182-13.016,2.373-19.904,1.984l-0.077-0.012h-0.074
			c-1.143,0.047-2.271,0.059-3.393,0.059h-0.534c-3.927,0-12.092-0.023-20.746-3.756c-0.104-0.047-0.201-0.07-0.236-0.082
			c-2.82-1.039-5.306-2.469-7.591-4.359l-0.349-0.26c-4.751-3.484-8.297-9.85-10.529-18.896l-0.121-0.332
			c-0.106-0.211-0.372-0.861-0.541-2.221l-0.15-1.252c-0.966-5.148-1.104-8.975-1.107-9.023l-0.162-1.488
			c-0.166-1.369-0.328-2.738-0.473-4.109c-0.068-0.639-0.068-1.121,0.009-1.477l0.03-0.271c0.162-4.926,1.453-17.102,9.912-23.658
			l0.278-0.26c0.156-0.211,0.508-0.365,0.62-0.412l0.254-0.143c1.146-0.779,2.498-1.465,3.915-1.984
			c5.306-1.961,11.702-2.953,19.007-2.953c2.758,0,5.578,0.154,8.495,0.438c10.745,0.355,22.163,1.678,34.91,4.051
			c2.055,0.379,4.293,1.041,6.851,2.033c9.821,3.814,13.925,8.42,14.108,15.932L225.083,332.131z M369.65,321.678
			c-0.184,1.76-0.396,3.531-0.614,5.303l-0.007,0.283c-0.012,0.166-0.165,3.957-1.133,9.189c-0.042,0.307-0.089,0.686-0.143,1.1
			c-0.118,0.992-0.312,1.771-0.602,2.373l-0.112,0.318c-2.18,8.941-5.723,15.271-10.53,18.803l-0.39,0.273
			c-2.185,1.807-4.659,3.248-7.322,4.227l-0.396,0.143c-8.652,3.732-16.819,3.756-20.746,3.756h-0.508
			c-1.17,0-2.31-0.012-3.461-0.059h-0.077h-0.082c-0.874,0.059-1.825,0.082-2.776,0.082c-5.97,0-11.987-1.039-17.078-2.055
			c-9.862-1.984-17.037-7.193-21.951-15.922c-2.74-4.9-4.901-10.393-6.768-17.172l-3.696-19.359
			c0.171-7.488,4.264-12.105,14.12-15.932c2.562-0.992,4.801-1.654,6.85-2.045c12.732-2.361,24.178-3.684,35.079-4.051
			c2.764-0.283,5.562-0.426,8.327-0.426c1.057,0,2.084,0.037,3.105,0.072c-0.814,0.992-1.322,2.256-1.322,3.637
			c0,3.201,2.604,5.799,5.805,5.799c3.201,0,5.806-2.598,5.806-5.799c0-0.896-0.225-1.736-0.591-2.504
			c2.209,0.461,4.287,1.039,6.219,1.748c1.394,0.52,2.752,1.205,4.033,2.055l0.295,0.154c0.112,0.047,0.325,0.178,0.438,0.318
			l0.283,0.285c8.451,6.531,9.762,18.814,9.933,23.787l0.036,0.295C369.686,320.391,369.75,320.732,369.65,321.678z"/>
		<path fill="#303538" d="M368.965,186.513c-8.285-25.305-40.518-40.967-51.112-46.116c-1.181-0.573-2.403-1.169-2.646-1.334
			c-0.897-0.667-1.948-1.671-1.872-2.652c0.178-2.268,5.392-5.02,8.516-6.661c3.562-1.878,5.528-2.917,5.575-4.689
			c0.012-0.378-0.083-1.334-1.193-2.002c-12.248-7.329-27.365-11.049-44.94-11.049c-21.543,0-41.799,5.634-51.537,8.345
			c-2.413,0.667-4.713,1.305-5.699,1.47c-0.812-1.653,2.17-9.177,3.192-11.752c2.043-5.161,2.834-7.311,1.881-8.716
			c-0.387-0.561-1.01-0.886-1.819-0.886h-0.006c-50.306,2.161-91.662,71.007-91.63,82.866c0.012,3.85,9.387,11.545,13.069,11.54
			c0.328,0,0.632-0.06,0.918-0.148c0.021-0.006,0.044-0.006,0.065-0.006c0.487-0.154,49.444-14.504,117.569-14.504
			c34.217,0,67.583,3.584,99.177,10.66c0.006,0,0.006,0,0.012,0s0.018,0.006,0.023,0.006c0.296,0.059,0.544,0.083,0.762,0.083
			c1.034,0,1.583-0.543,1.813-0.862C369.81,189.1,369.426,187.907,368.965,186.513z"/>
		<path fill="#303538" d="M451.293,133.777l-85.074-85.074l-116.22-31.14l-116.22,31.14l-85.078,85.074l-31.14,116.22l31.14,116.22
			l85.078,85.074l116.22,31.146l116.22-31.135l85.08-85.086l31.14-116.22L451.293,133.777z M436.054,357.424l-78.637,78.626
			l-1.319,0.357L250,464.839l-0.388-0.104l-107.028-28.684l-78.634-78.625l-0.359-1.326L35.166,249.997l28.781-107.415l78.63-78.629
			l1.32-0.363l106.102-28.423l107.415,28.781l78.64,78.634l0.356,1.33l28.428,106.094l-0.368,1.336L436.054,357.424z"/>
	</g>
</g>
<g id="light">
	<rect id="dark_background" y="-1" display="none" fill="#414042" width="500" height="500"/>
	<g id="logo">
		<path fill="#BEBAB2" d="M55.98,14.999L45,4.02L30,0L15,4.02L4.019,14.999L0,30l4.019,15L15,55.98L30,60l15-4.019L55.98,45L60,30
			L55.98,14.999z M54.014,43.865L43.864,54.013l-0.171,0.047L30,57.729l-0.05-0.014l-13.813-3.701L5.987,43.865l-0.046-0.171
			L2.272,30l3.715-13.864L16.135,5.987l0.17-0.047L30,2.272l13.863,3.715l10.15,10.148l0.046,0.172l3.669,13.693l-0.048,0.172
			L54.014,43.865z"/>
		<g>
			<path fill="#BEBAB2" d="M25.434,36.07c-0.33-0.128-0.619-0.214-0.884-0.263c-1.646-0.307-3.119-0.477-4.506-0.522
				c-0.376-0.037-0.74-0.057-1.096-0.057c-0.943,0-1.769,0.128-2.453,0.381c-0.183,0.067-0.358,0.155-0.505,0.256l-0.033,0.019
				c-0.015,0.007-0.06,0.026-0.08,0.054l-0.036,0.033c-1.092,0.847-1.258,2.418-1.279,3.054l-0.004,0.035
				c-0.01,0.046-0.01,0.107-0.001,0.19c0.019,0.177,0.04,0.354,0.061,0.53l0.021,0.192c0,0.006,0.018,0.5,0.143,1.164l0.019,0.162
				c0.022,0.175,0.056,0.259,0.07,0.286l0.016,0.043c0.288,1.168,0.746,1.989,1.359,2.439l0.045,0.033
				c0.295,0.244,0.616,0.429,0.98,0.562c0.005,0.002,0.017,0.005,0.031,0.011c1.117,0.481,2.17,0.484,2.677,0.484h0.069
				c0.145,0,0.29-0.001,0.438-0.007h0.01l0.01,0.001c0.889,0.05,1.808-0.104,2.569-0.256c1.274-0.256,2.2-0.929,2.832-2.055
				c0.356-0.635,0.636-1.347,0.88-2.241l0.471-2.475C27.231,37.157,26.702,36.562,25.434,36.07z"/>
			<path fill="#BEBAB2" d="M45.441,39.043c-0.022-0.643-0.191-2.228-1.282-3.07l-0.036-0.037c-0.015-0.018-0.042-0.035-0.057-0.041
				l-0.038-0.02c-0.165-0.11-0.341-0.198-0.521-0.266c-0.25-0.092-0.518-0.166-0.803-0.226c0.047,0.1,0.076,0.208,0.076,0.323
				c0,0.413-0.336,0.748-0.749,0.748s-0.749-0.335-0.749-0.748c0-0.178,0.065-0.341,0.17-0.47c-0.132-0.004-0.264-0.009-0.4-0.009
				c-0.357,0-0.718,0.019-1.075,0.055c-1.407,0.048-2.884,0.218-4.527,0.523c-0.265,0.05-0.554,0.136-0.884,0.264
				c-1.272,0.493-1.801,1.09-1.822,2.056l0.477,2.499c0.241,0.875,0.52,1.584,0.874,2.217c0.634,1.126,1.56,1.799,2.833,2.055
				c0.657,0.131,1.434,0.265,2.204,0.265c0.123,0,0.245-0.003,0.358-0.01h0.011h0.01c0.148,0.006,0.296,0.007,0.446,0.007h0.065
				c0.507,0,1.562-0.003,2.678-0.484l0.052-0.019c0.344-0.126,0.663-0.312,0.944-0.546l0.051-0.035
				c0.62-0.455,1.077-1.272,1.358-2.427l0.015-0.041c0.038-0.077,0.062-0.178,0.078-0.306c0.007-0.054,0.013-0.103,0.019-0.143
				c0.125-0.675,0.145-1.164,0.146-1.186l0.001-0.037c0.028-0.229,0.056-0.457,0.079-0.685c0.014-0.122,0.005-0.166,0.004-0.17
				L45.441,39.043z"/>
		</g>
		<path fill="#BEBAB2" d="M52.823,16.822l-9.646-9.646L30,3.645L16.822,7.176l-9.646,9.646L3.645,30l3.531,13.177l9.646,9.647
			L30,56.356l13.178-3.532l9.646-9.647L56.354,30L52.823,16.822z M45.721,25.67c0.035,0.237,0.053,0.499,0.053,0.817
			c-0.002,0.29-0.032,0.589-0.063,0.867c-0.025,0.237-0.06,0.551-0.08,0.861l-0.003,0.036c-0.018,0.276-0.037,0.562-0.068,0.84
			c-0.019,0.218-0.045,0.437-0.07,0.65l-0.021,0.188c-0.055,0.489-0.112,0.95-0.163,1.354l-0.018,0.131
			c-0.111,0.861-0.201,1.443-0.201,1.449c-0.021,0.133-0.135,0.23-0.268,0.23l-0.045-0.003c-0.12-0.02-0.213-0.12-0.226-0.242
			c-0.001-0.008-0.06-0.597-0.125-1.459L44.41,31.23c-0.03-0.398-0.062-0.849-0.091-1.327l-0.012-0.178
			c-0.014-0.217-0.027-0.438-0.035-0.66c-0.011-0.266-0.031-0.54-0.053-0.805l-0.004-0.048c-0.024-0.31-0.06-0.617-0.088-0.851
			c-0.034-0.274-0.066-0.567-0.07-0.852c-0.006-0.272,0.015-0.532,0.038-0.798c0.017-0.237,0.045-0.476,0.083-0.707
			c0.069-0.468,0.181-0.866,0.239-1.079c0.062-0.219,0.229-0.359,0.427-0.359c0.174,0,0.333,0.115,0.411,0.3
			c0.113,0.251,0.228,0.625,0.332,1.077C45.641,25.178,45.685,25.422,45.721,25.67z M27.071,10.701L27.071,10.701
			c0.105,0,0.186,0.041,0.235,0.114c0.123,0.181,0.021,0.458-0.243,1.125c-0.132,0.332-0.517,1.303-0.412,1.517
			c0.127-0.021,0.424-0.104,0.736-0.19c1.257-0.35,3.871-1.076,6.652-1.076c2.268,0,4.219,0.479,5.8,1.426
			c0.144,0.086,0.155,0.21,0.154,0.258c-0.006,0.229-0.26,0.363-0.72,0.605c-0.403,0.212-1.076,0.567-1.099,0.86
			c-0.01,0.126,0.125,0.256,0.241,0.342c0.031,0.021,0.189,0.099,0.342,0.172c1.367,0.665,5.527,2.687,6.597,5.952
			c0.06,0.18,0.108,0.334,0.015,0.464c-0.029,0.041-0.1,0.111-0.233,0.111c-0.028,0-0.061-0.003-0.099-0.011
			c-0.001,0-0.002-0.001-0.003-0.001s-0.001,0-0.001,0c-4.078-0.913-8.385-1.376-12.801-1.376c-8.793,0-15.111,1.853-15.174,1.872
			c-0.002,0-0.006,0-0.008,0.001c-0.037,0.012-0.076,0.02-0.119,0.02c-0.475,0-1.685-0.993-1.687-1.49
			C15.24,19.865,20.578,10.979,27.071,10.701z M43.922,32.698c0,0.413-0.336,0.748-0.749,0.748c-0.412,0-0.748-0.335-0.748-0.748
			s0.336-0.749,0.748-0.749C43.586,31.949,43.922,32.285,43.922,32.698z M13.864,25.496c0.035-0.251,0.08-0.5,0.132-0.739
			c0.104-0.462,0.218-0.844,0.332-1.104c0.038-0.092,0.16-0.382,0.438-0.382c0.104,0,0.208,0.041,0.322,0.124
			c0.27,0.199,0.788,0.755,0.816,1.109c0.016,0.192-0.04,0.495-0.098,0.815c-0.027,0.151-0.055,0.304-0.074,0.441
			c-0.024,0.177-0.084,0.471-0.143,0.754c-0.058,0.283-0.118,0.576-0.134,0.715c-0.042,0.352-0.069,0.62-0.088,0.871l-0.004,0.054
			c-0.021,0.27-0.043,0.55-0.051,0.818c-0.009,0.226-0.023,0.447-0.037,0.666l-0.011,0.194c-0.028,0.494-0.062,0.961-0.091,1.371
			l-0.011,0.15c-0.066,0.883-0.125,1.487-0.126,1.493c-0.014,0.142-0.13,0.248-0.27,0.248l-0.029-0.001
			c-0.122-0.014-0.22-0.108-0.239-0.23c-0.001-0.008-0.091-0.604-0.203-1.483l-0.016-0.128c-0.051-0.417-0.11-0.89-0.165-1.396
			l-0.021-0.184c-0.025-0.222-0.051-0.448-0.071-0.678c-0.03-0.274-0.048-0.562-0.066-0.838l-0.003-0.055
			c-0.022-0.32-0.055-0.639-0.082-0.882c-0.031-0.285-0.061-0.59-0.062-0.885C13.811,26.009,13.828,25.743,13.864,25.496z
			 M48.476,35.514c-0.022,0.465-0.107,0.919-0.189,1.359c-0.024,0.135-0.05,0.268-0.073,0.399c-0.017,0.1-0.054,0.307-0.236,0.377
			c-0.747,0.288-0.885,0.94-1.03,1.631l-0.033,0.16c-0.237,1.09-0.478,2.154-0.802,3.213c-0.554,1.812-1.512,2.899-3.015,3.426
			c-0.026,0.008-1.457,0.391-3.582,0.391c-1.146,0-2.286-0.108-3.391-0.322l-0.029-0.008c-0.9-0.312-1.655-0.892-2.372-1.821
			c-1.057-1.369-1.845-2.843-2.343-4.383c-0.146-0.455-0.315-0.795-0.534-1.068c-0.233-0.296-0.535-0.459-0.849-0.463
			c-0.308,0.004-0.608,0.167-0.842,0.461c-0.221,0.276-0.386,0.605-0.535,1.069c-0.497,1.538-1.285,3.014-2.342,4.384
			c-0.719,0.932-1.469,1.508-2.359,1.818l-0.029,0.007c-1.112,0.216-2.258,0.326-3.405,0.326c-2.029,0-3.407-0.345-3.558-0.383
			c-1.525-0.532-2.484-1.622-3.039-3.434c-0.327-1.068-0.575-2.173-0.8-3.211l-0.034-0.16c-0.146-0.69-0.284-1.345-1.032-1.635
			c-0.182-0.068-0.217-0.275-0.234-0.375c-0.023-0.132-0.048-0.265-0.073-0.397c-0.083-0.44-0.168-0.895-0.191-1.361
			c-0.029-0.608,0.235-0.943,0.854-1.092c0.875-0.205,1.776-0.264,2.647-0.319c0.158-0.012,0.315-0.021,0.473-0.032
			c0.998-0.069,1.984-0.105,2.933-0.105c3.382,0,6.469,0.43,9.435,1.314c0.705,0.216,1.379,0.326,2.063,0.335h0.076h0.069
			c0.683-0.009,1.356-0.119,2.06-0.334c2.969-0.886,6.056-1.315,9.438-1.315c0.948,0,1.935,0.036,2.931,0.105
			c0.158,0.011,0.316,0.021,0.473,0.03c0.873,0.058,1.774,0.116,2.649,0.321C48.242,34.57,48.506,34.905,48.476,35.514z"/>
	</g>
</g>
</svg>
