<?xml version="1.0" encoding="utf-8"?>
<!-- Generator: Adobe Illustrator 16.0.4, SVG Export Plug-In . SVG Version: 6.00 Build 0)  -->
<!DOCTYPE svg PUBLIC "-//W3C//DTD SVG 1.1//EN" "http://www.w3.org/Graphics/SVG/1.1/DTD/svg11.dtd">
<svg version="1.1" xmlns="http://www.w3.org/2000/svg" xmlns:xlink="http://www.w3.org/1999/xlink" x="0px" y="0px" width="100px"
	 height="100px" viewBox="0 0 100 100" enable-background="new 0 0 100 100" xml:space="preserve">
<g id="light_background" display="none">
	<rect display="inline" fill="#F4F1EB" width="500" height="500"/>
</g>
<g id="dark_2_">
	<g id="logo_1_">
		<path fill="#938F89" d="M25.147,38.99c-0.19-0.138-0.365-0.205-0.537-0.205c-0.464,0-0.667,0.482-0.73,0.635
			c-0.189,0.435-0.38,1.072-0.553,1.842c-0.088,0.397-0.163,0.813-0.221,1.232c-0.06,0.41-0.089,0.854-0.089,1.401
			c0.004,0.491,0.054,0.998,0.105,1.475c0.044,0.404,0.099,0.935,0.135,1.469l0.006,0.092c0.03,0.459,0.06,0.938,0.11,1.396
			c0.034,0.383,0.077,0.76,0.119,1.128l0.035,0.308c0.091,0.843,0.189,1.632,0.274,2.325l0.026,0.214
			c0.186,1.466,0.336,2.459,0.338,2.472c0.031,0.203,0.194,0.361,0.398,0.384l0.048,0.002c0.232,0,0.425-0.178,0.449-0.413
			c0.001-0.011,0.101-1.017,0.21-2.488l0.018-0.251c0.049-0.684,0.105-1.461,0.152-2.284l0.019-0.325
			c0.023-0.363,0.046-0.733,0.061-1.11c0.015-0.447,0.051-0.913,0.085-1.363l0.007-0.09c0.032-0.418,0.077-0.865,0.146-1.451
			c0.027-0.231,0.127-0.719,0.224-1.191s0.196-0.963,0.238-1.258c0.031-0.229,0.078-0.482,0.123-0.735
			c0.097-0.533,0.188-1.038,0.163-1.358C26.46,40.249,25.597,39.322,25.147,38.99z"/>
		<path fill="#938F89" d="M76.2,42.784c-0.06-0.414-0.133-0.821-0.221-1.211c-0.174-0.753-0.364-1.376-0.553-1.795
			c-0.131-0.308-0.396-0.499-0.687-0.499c-0.328,0-0.608,0.234-0.71,0.598c-0.099,0.356-0.284,1.02-0.399,1.799
			c-0.062,0.387-0.109,0.784-0.139,1.18c-0.038,0.441-0.072,0.875-0.063,1.329c0.008,0.473,0.061,0.962,0.118,1.419
			c0.047,0.39,0.105,0.902,0.146,1.418l0.007,0.079c0.035,0.441,0.071,0.899,0.088,1.341c0.014,0.371,0.036,0.74,0.06,1.101
			l0.019,0.297c0.047,0.798,0.101,1.548,0.151,2.211l0.02,0.27c0.108,1.438,0.207,2.419,0.209,2.432
			c0.021,0.203,0.176,0.371,0.375,0.403l0.075,0.005c0.222,0,0.411-0.162,0.445-0.383c0.002-0.011,0.15-0.981,0.337-2.417
			l0.028-0.218c0.085-0.674,0.182-1.441,0.272-2.257l0.036-0.314c0.042-0.356,0.085-0.721,0.116-1.084
			c0.053-0.464,0.084-0.938,0.114-1.4l0.004-0.06c0.036-0.518,0.092-1.04,0.135-1.436c0.051-0.465,0.102-0.963,0.105-1.445
			C76.289,43.614,76.26,43.179,76.2,42.784z"/>
		<circle fill="#938F89" cx="71.955" cy="54.497" r="1.248"/>
		<path fill="#938F89" d="M79.371,57.37c-1.458-0.343-2.96-0.439-4.414-0.536c-0.262-0.016-0.525-0.033-0.788-0.051
			c-1.66-0.114-3.306-0.176-4.886-0.176c-5.637,0-10.78,0.717-15.729,2.193c-1.172,0.358-2.294,0.541-3.432,0.556h-0.116H49.88
			c-1.141-0.015-2.265-0.197-3.439-0.559c-4.944-1.474-10.088-2.19-15.725-2.19c-1.581,0-3.226,0.062-4.888,0.176
			c-0.263,0.018-0.525,0.035-0.788,0.054c-1.453,0.094-2.955,0.19-4.413,0.533c-1.032,0.246-1.47,0.805-1.423,1.819
			c0.038,0.777,0.181,1.534,0.318,2.269c0.042,0.222,0.083,0.442,0.122,0.663c0.029,0.165,0.088,0.511,0.391,0.625
			c1.247,0.482,1.477,1.573,1.72,2.724l0.057,0.267c0.376,1.73,0.789,3.572,1.334,5.354c0.923,3.019,2.523,4.835,5.064,5.722
			c0.251,0.063,2.548,0.638,5.93,0.638c1.912,0,3.822-0.184,5.675-0.544l0.048-0.011c1.485-0.518,2.734-1.479,3.933-3.03
			c1.761-2.284,3.075-4.743,3.904-7.308c0.249-0.771,0.523-1.32,0.892-1.78c0.389-0.49,0.889-0.763,1.402-0.771
			c0.523,0.008,1.027,0.28,1.416,0.772c0.364,0.455,0.646,1.021,0.89,1.781c0.83,2.566,2.144,5.023,3.904,7.305
			c1.195,1.55,2.453,2.515,3.954,3.036l0.049,0.013c1.841,0.355,3.742,0.536,5.651,0.536c3.541,0,5.925-0.638,5.97-0.65
			c2.505-0.877,4.102-2.69,5.023-5.709c0.542-1.766,0.941-3.539,1.337-5.355l0.056-0.268c0.243-1.15,0.472-2.238,1.717-2.719
			c0.305-0.116,0.365-0.462,0.394-0.627c0.039-0.221,0.081-0.441,0.123-0.666c0.136-0.733,0.278-1.491,0.315-2.266
			C80.844,58.175,80.404,57.616,79.371,57.37z M44.64,67.667c-0.407,1.492-0.874,2.679-1.466,3.735
			c-1.053,1.877-2.597,2.998-4.719,3.425c-1.269,0.254-2.8,0.511-4.282,0.427l-0.017-0.003h-0.016
			c-0.246,0.011-0.489,0.013-0.73,0.013h-0.115c-0.845,0-2.601-0.005-4.462-0.808c-0.022-0.01-0.043-0.016-0.051-0.018
			c-0.607-0.224-1.142-0.531-1.633-0.938l-0.075-0.057c-1.022-0.749-1.785-2.118-2.265-4.064l-0.026-0.071
			c-0.023-0.046-0.08-0.186-0.116-0.478l-0.033-0.27c-0.208-1.107-0.237-1.931-0.238-1.941l-0.035-0.319
			c-0.036-0.295-0.07-0.59-0.102-0.885c-0.015-0.137-0.015-0.241,0.002-0.317l0.006-0.059c0.035-1.06,0.312-3.679,2.132-5.089
			l0.06-0.056c0.034-0.046,0.109-0.079,0.133-0.089l0.055-0.03c0.247-0.168,0.538-0.315,0.842-0.428
			c1.141-0.421,2.517-0.635,4.088-0.635c0.593,0,1.2,0.033,1.828,0.094c2.312,0.077,4.768,0.361,7.509,0.872
			c0.442,0.081,0.924,0.224,1.474,0.438c2.113,0.82,2.996,1.811,3.035,3.427L44.64,67.667z M75.738,65.419
			c-0.04,0.379-0.086,0.76-0.133,1.141l-0.001,0.061c-0.003,0.036-0.035,0.852-0.244,1.978c-0.009,0.065-0.019,0.147-0.03,0.236
			c-0.025,0.213-0.067,0.381-0.129,0.51l-0.024,0.069c-0.469,1.923-1.231,3.284-2.266,4.044l-0.084,0.06
			c-0.47,0.388-1.002,0.698-1.574,0.909l-0.086,0.03c-1.86,0.803-3.617,0.808-4.462,0.808h-0.109c-0.252,0-0.497-0.002-0.745-0.013
			h-0.017h-0.018c-0.188,0.013-0.393,0.018-0.597,0.018c-1.284,0-2.579-0.223-3.674-0.441c-2.122-0.427-3.665-1.548-4.722-3.425
			c-0.59-1.055-1.055-2.236-1.456-3.694l-0.795-4.164c0.036-1.611,0.917-2.604,3.037-3.427c0.551-0.214,1.032-0.356,1.474-0.44
			c2.738-0.508,5.201-0.792,7.546-0.871c0.595-0.062,1.196-0.092,1.791-0.092c0.228,0,0.448,0.008,0.668,0.016
			c-0.175,0.213-0.284,0.485-0.284,0.782c0,0.688,0.561,1.247,1.248,1.247c0.689,0,1.249-0.559,1.249-1.247
			c0-0.193-0.048-0.373-0.127-0.539c0.476,0.1,0.923,0.224,1.338,0.376c0.3,0.112,0.592,0.26,0.867,0.442l0.063,0.033
			c0.024,0.01,0.07,0.038,0.095,0.068l0.061,0.062c1.818,1.405,2.1,4.047,2.137,5.117l0.008,0.063
			C75.746,65.142,75.76,65.216,75.738,65.419z"/>
		<path fill="#938F89" d="M75.591,36.344c-1.782-5.444-8.716-8.812-10.995-9.921c-0.254-0.123-0.517-0.251-0.569-0.287
			c-0.192-0.144-0.419-0.359-0.402-0.57c0.038-0.487,1.16-1.079,1.832-1.433c0.766-0.404,1.188-0.628,1.199-1.009
			c0.002-0.081-0.018-0.287-0.257-0.431c-2.635-1.576-5.887-2.377-9.667-2.377c-4.635,0-8.992,1.212-11.086,1.795
			c-0.519,0.144-1.014,0.281-1.226,0.316c-0.174-0.355,0.467-1.974,0.687-2.527c0.439-1.11,0.609-1.573,0.404-1.875
			c-0.083-0.121-0.217-0.19-0.391-0.19h-0.001C34.296,18.3,25.4,33.109,25.407,35.66c0.003,0.828,2.02,2.483,2.812,2.481
			c0.07,0,0.136-0.013,0.197-0.031c0.005-0.001,0.01-0.001,0.014-0.001c0.105-0.033,10.636-3.12,25.291-3.12
			c7.36,0,14.538,0.771,21.334,2.293c0.001,0,0.001,0,0.002,0c0.002,0,0.004,0.001,0.006,0.001c0.063,0.013,0.116,0.018,0.163,0.018
			c0.223,0,0.341-0.116,0.391-0.186C75.772,36.899,75.689,36.643,75.591,36.344z"/>
		<path fill="#938F89" d="M93.3,24.999L75,6.699L50,0L25,6.699l-18.301,18.3L0,49.999L6.698,75L25,93.3l25,6.7l25-6.697L93.302,75
			L100,49.999L93.3,24.999z M90.022,73.108L73.106,90.021l-0.284,0.077L50,96.214l-0.083-0.021l-23.023-6.171L9.979,73.108
			l-0.077-0.285L3.787,49.999l6.191-23.105L26.892,9.979l0.284-0.078L50,3.787l23.105,6.191l16.917,16.915l0.076,0.286l6.115,22.821
			l-0.079,0.288L90.022,73.108z"/>
	</g>
</g>
<g id="light" display="none">
	<rect id="dark_background" y="-1" fill="#414042" width="500" height="500"/>
	<g id="logo" display="inline">
		<path fill="#BEBAB2" d="M55.98,14.999L45,4.02L30,0L15,4.02L4.019,14.999L0,30l4.019,15L15,55.98L30,60l15-4.019L55.98,45L60,30
			L55.98,14.999z M54.014,43.865L43.864,54.013l-0.171,0.047L30,57.729l-0.05-0.014l-13.813-3.701L5.987,43.865l-0.046-0.171
			L2.272,30l3.715-13.864L16.135,5.987l0.17-0.047L30,2.272l13.863,3.715l10.15,10.148l0.046,0.172l3.669,13.693l-0.048,0.172
			L54.014,43.865z"/>
		<g>
			<path fill="#BEBAB2" d="M25.434,36.07c-0.33-0.128-0.619-0.214-0.884-0.263c-1.646-0.307-3.119-0.477-4.506-0.522
				c-0.376-0.037-0.74-0.057-1.096-0.057c-0.943,0-1.769,0.128-2.453,0.381c-0.183,0.067-0.358,0.155-0.505,0.256l-0.033,0.019
				c-0.015,0.007-0.06,0.026-0.08,0.054l-0.036,0.033c-1.092,0.847-1.258,2.418-1.279,3.054l-0.004,0.035
				c-0.01,0.046-0.01,0.107-0.001,0.19c0.019,0.177,0.04,0.354,0.061,0.53l0.021,0.192c0,0.006,0.018,0.5,0.143,1.164l0.019,0.162
				c0.022,0.175,0.056,0.259,0.07,0.286l0.016,0.043c0.288,1.168,0.746,1.989,1.359,2.439l0.045,0.033
				c0.295,0.244,0.616,0.429,0.98,0.562c0.005,0.002,0.017,0.005,0.031,0.011c1.117,0.481,2.17,0.484,2.677,0.484h0.069
				c0.145,0,0.29-0.001,0.438-0.007h0.01l0.01,0.001c0.889,0.05,1.808-0.104,2.569-0.256c1.274-0.256,2.2-0.929,2.832-2.055
				c0.356-0.635,0.636-1.347,0.88-2.241l0.471-2.475C27.231,37.157,26.702,36.562,25.434,36.07z"/>
			<path fill="#BEBAB2" d="M45.441,39.043c-0.022-0.643-0.191-2.228-1.282-3.07l-0.036-0.037c-0.015-0.018-0.042-0.035-0.057-0.041
				l-0.038-0.02c-0.165-0.11-0.341-0.198-0.521-0.266c-0.25-0.092-0.518-0.166-0.803-0.226c0.047,0.1,0.076,0.208,0.076,0.323
				c0,0.413-0.336,0.748-0.749,0.748s-0.749-0.335-0.749-0.748c0-0.178,0.065-0.341,0.17-0.47c-0.132-0.004-0.264-0.009-0.4-0.009
				c-0.357,0-0.718,0.019-1.075,0.055c-1.407,0.048-2.884,0.218-4.527,0.523c-0.265,0.05-0.554,0.136-0.884,0.264
				c-1.272,0.493-1.801,1.09-1.822,2.056l0.477,2.499c0.241,0.875,0.52,1.584,0.874,2.217c0.634,1.126,1.56,1.799,2.833,2.055
				c0.657,0.131,1.434,0.265,2.204,0.265c0.123,0,0.245-0.003,0.358-0.01h0.011h0.01c0.148,0.006,0.296,0.007,0.446,0.007h0.065
				c0.507,0,1.562-0.003,2.678-0.484l0.052-0.019c0.344-0.126,0.663-0.312,0.944-0.546l0.051-0.035
				c0.62-0.455,1.077-1.272,1.358-2.427l0.015-0.041c0.038-0.077,0.062-0.178,0.078-0.306c0.007-0.054,0.013-0.103,0.019-0.143
				c0.125-0.675,0.145-1.164,0.146-1.186l0.001-0.037c0.028-0.229,0.056-0.457,0.079-0.685c0.014-0.122,0.005-0.166,0.004-0.17
				L45.441,39.043z"/>
		</g>
		<path fill="#BEBAB2" d="M52.823,16.822l-9.646-9.646L30,3.645L16.822,7.176l-9.646,9.646L3.645,30l3.531,13.177l9.646,9.647
			L30,56.356l13.178-3.532l9.646-9.647L56.354,30L52.823,16.822z M45.721,25.67c0.035,0.237,0.053,0.499,0.053,0.817
			c-0.002,0.29-0.032,0.589-0.063,0.867c-0.025,0.237-0.06,0.551-0.08,0.861l-0.003,0.036c-0.018,0.276-0.037,0.562-0.068,0.84
			c-0.019,0.218-0.045,0.437-0.07,0.65l-0.021,0.188c-0.055,0.489-0.112,0.95-0.163,1.354l-0.018,0.131
			c-0.111,0.861-0.201,1.443-0.201,1.449c-0.021,0.133-0.135,0.23-0.268,0.23l-0.045-0.003c-0.12-0.02-0.213-0.12-0.226-0.242
			c-0.001-0.008-0.06-0.597-0.125-1.459L44.41,31.23c-0.03-0.398-0.062-0.849-0.091-1.327l-0.012-0.178
			c-0.014-0.217-0.027-0.438-0.035-0.66c-0.011-0.266-0.031-0.54-0.053-0.805l-0.004-0.048c-0.024-0.31-0.06-0.617-0.088-0.851
			c-0.034-0.274-0.066-0.567-0.07-0.852c-0.006-0.272,0.015-0.532,0.038-0.798c0.017-0.237,0.045-0.476,0.083-0.707
			c0.069-0.468,0.181-0.866,0.239-1.079c0.062-0.219,0.229-0.359,0.427-0.359c0.174,0,0.333,0.115,0.411,0.3
			c0.113,0.251,0.228,0.625,0.332,1.077C45.641,25.178,45.685,25.422,45.721,25.67z M27.071,10.701L27.071,10.701
			c0.105,0,0.186,0.041,0.235,0.114c0.123,0.181,0.021,0.458-0.243,1.125c-0.132,0.332-0.517,1.303-0.412,1.517
			c0.127-0.021,0.424-0.104,0.736-0.19c1.257-0.35,3.871-1.076,6.652-1.076c2.268,0,4.219,0.479,5.8,1.426
			c0.144,0.086,0.155,0.21,0.154,0.258c-0.006,0.229-0.26,0.363-0.72,0.605c-0.403,0.212-1.076,0.567-1.099,0.86
			c-0.01,0.126,0.125,0.256,0.241,0.342c0.031,0.021,0.189,0.099,0.342,0.172c1.367,0.665,5.527,2.687,6.597,5.952
			c0.06,0.18,0.108,0.334,0.015,0.464c-0.029,0.041-0.1,0.111-0.233,0.111c-0.028,0-0.061-0.003-0.099-0.011
			c-0.001,0-0.002-0.001-0.003-0.001s-0.001,0-0.001,0c-4.078-0.913-8.385-1.376-12.801-1.376c-8.793,0-15.111,1.853-15.174,1.872
			c-0.002,0-0.006,0-0.008,0.001c-0.037,0.012-0.076,0.02-0.119,0.02c-0.475,0-1.685-0.993-1.687-1.49
			C15.24,19.865,20.578,10.979,27.071,10.701z M43.922,32.698c0,0.413-0.336,0.748-0.749,0.748c-0.412,0-0.748-0.335-0.748-0.748
			s0.336-0.749,0.748-0.749C43.586,31.949,43.922,32.285,43.922,32.698z M13.864,25.496c0.035-0.251,0.08-0.5,0.132-0.739
			c0.104-0.462,0.218-0.844,0.332-1.104c0.038-0.092,0.16-0.382,0.438-0.382c0.104,0,0.208,0.041,0.322,0.124
			c0.27,0.199,0.788,0.755,0.816,1.109c0.016,0.192-0.04,0.495-0.098,0.815c-0.027,0.151-0.055,0.304-0.074,0.441
			c-0.024,0.177-0.084,0.471-0.143,0.754c-0.058,0.283-0.118,0.576-0.134,0.715c-0.042,0.352-0.069,0.62-0.088,0.871l-0.004,0.054
			c-0.021,0.27-0.043,0.55-0.051,0.818c-0.009,0.226-0.023,0.447-0.037,0.666l-0.011,0.194c-0.028,0.494-0.062,0.961-0.091,1.371
			l-0.011,0.15c-0.066,0.883-0.125,1.487-0.126,1.493c-0.014,0.142-0.13,0.248-0.27,0.248l-0.029-0.001
			c-0.122-0.014-0.22-0.108-0.239-0.23c-0.001-0.008-0.091-0.604-0.203-1.483l-0.016-0.128c-0.051-0.417-0.11-0.89-0.165-1.396
			l-0.021-0.184c-0.025-0.222-0.051-0.448-0.071-0.678c-0.03-0.274-0.048-0.562-0.066-0.838l-0.003-0.055
			c-0.022-0.32-0.055-0.639-0.082-0.882c-0.031-0.285-0.061-0.59-0.062-0.885C13.811,26.009,13.828,25.743,13.864,25.496z
			 M48.476,35.514c-0.022,0.465-0.107,0.919-0.189,1.359c-0.024,0.135-0.05,0.268-0.073,0.399c-0.017,0.1-0.054,0.307-0.236,0.377
			c-0.747,0.288-0.885,0.94-1.03,1.631l-0.033,0.16c-0.237,1.09-0.478,2.154-0.802,3.213c-0.554,1.812-1.512,2.899-3.015,3.426
			c-0.026,0.008-1.457,0.391-3.582,0.391c-1.146,0-2.286-0.108-3.391-0.322l-0.029-0.008c-0.9-0.312-1.655-0.892-2.372-1.821
			c-1.057-1.369-1.845-2.843-2.343-4.383c-0.146-0.455-0.315-0.795-0.534-1.068c-0.233-0.296-0.535-0.459-0.849-0.463
			c-0.308,0.004-0.608,0.167-0.842,0.461c-0.221,0.276-0.386,0.605-0.535,1.069c-0.497,1.538-1.285,3.014-2.342,4.384
			c-0.719,0.932-1.469,1.508-2.359,1.818l-0.029,0.007c-1.112,0.216-2.258,0.326-3.405,0.326c-2.029,0-3.407-0.345-3.558-0.383
			c-1.525-0.532-2.484-1.622-3.039-3.434c-0.327-1.068-0.575-2.173-0.8-3.211l-0.034-0.16c-0.146-0.69-0.284-1.345-1.032-1.635
			c-0.182-0.068-0.217-0.275-0.234-0.375c-0.023-0.132-0.048-0.265-0.073-0.397c-0.083-0.44-0.168-0.895-0.191-1.361
			c-0.029-0.608,0.235-0.943,0.854-1.092c0.875-0.205,1.776-0.264,2.647-0.319c0.158-0.012,0.315-0.021,0.473-0.032
			c0.998-0.069,1.984-0.105,2.933-0.105c3.382,0,6.469,0.43,9.435,1.314c0.705,0.216,1.379,0.326,2.063,0.335h0.076h0.069
			c0.683-0.009,1.356-0.119,2.06-0.334c2.969-0.886,6.056-1.315,9.438-1.315c0.948,0,1.935,0.036,2.931,0.105
			c0.158,0.011,0.316,0.021,0.473,0.03c0.873,0.058,1.774,0.116,2.649,0.321C48.242,34.57,48.506,34.905,48.476,35.514z"/>
	</g>
</g>
</svg>
