<?xml version="1.0" encoding="utf-8"?>
<!-- Generator: Adobe Illustrator 16.0.4, SVG Export Plug-In . SVG Version: 6.00 Build 0)  -->
<!DOCTYPE svg PUBLIC "-//W3C//DTD SVG 1.1//EN" "http://www.w3.org/Graphics/SVG/1.1/DTD/svg11.dtd">
<svg version="1.1" id="Layer_1" xmlns="http://www.w3.org/2000/svg" xmlns:xlink="http://www.w3.org/1999/xlink" x="0px" y="0px"
	 width="30px" height="30px" viewBox="0 0 30 30" enable-background="new 0 0 30 30" xml:space="preserve">
<path fill="#BEBAB2" d="M30,5c0,0.553-0.447,1-1,1H1C0.447,6,0,5.553,0,5V3c0-0.553,0.447-1,1-1h28c0.553,0,1,0.447,1,1V5z"/>
<path fill="#BEBAB2" d="M30,16c0,0.553-0.447,1-1,1H1c-0.553,0-1-0.447-1-1v-2c0-0.553,0.447-1,1-1h28c0.553,0,1,0.447,1,1V16z"/>
<path fill="#BEBAB2" d="M30,27c0,0.553-0.447,1-1,1H1c-0.553,0-1-0.447-1-1v-2c0-0.553,0.447-1,1-1h28c0.553,0,1,0.447,1,1V27z"/>
</svg>
