<?xml version="1.0" encoding="utf-8"?>
<!-- Generator: Adobe Illustrator 16.0.4, SVG Export Plug-In . SVG Version: 6.00 Build 0)  -->
<!DOCTYPE svg PUBLIC "-//W3C//DTD SVG 1.1//EN" "http://www.w3.org/Graphics/SVG/1.1/DTD/svg11.dtd">
<svg version="1.1" id="Layer_1" xmlns="http://www.w3.org/2000/svg" xmlns:xlink="http://www.w3.org/1999/xlink" x="0px" y="0px"
	 width="30px" height="25px" viewBox="0 0 30 25" enable-background="new 0 0 30 25" xml:space="preserve">
<path fill="#BEBAB2" d="M30,3.25C30,3.664,29.553,4,29,4H1C0.448,4,0,3.664,0,3.25v-1.5C0,1.336,0.448,1,1,1h28
	c0.553,0,1,0.336,1,0.75V3.25z"/>
<path fill="#BEBAB2" d="M30,13.25c0,0.414-0.447,0.75-1,0.75H1c-0.552,0-1-0.336-1-0.75v-1.5C0,11.336,0.448,11,1,11h28
	c0.553,0,1,0.336,1,0.75V13.25z"/>
<path fill="#BEBAB2" d="M30,23.25c0,0.414-0.447,0.75-1,0.75H1c-0.552,0-1-0.336-1-0.75v-1.5C0,21.336,0.448,21,1,21h28
	c0.553,0,1,0.336,1,0.75V23.25z"/>
</svg>
