<?xml version="1.0" encoding="utf-8"?>
<!-- Generator: Adobe Illustrator 16.0.4, SVG Export Plug-In . SVG Version: 6.00 Build 0)  -->
<!DOCTYPE svg PUBLIC "-//W3C//DTD SVG 1.1//EN" "http://www.w3.org/Graphics/SVG/1.1/DTD/svg11.dtd">
<svg version="1.1" id="Layer_1" xmlns="http://www.w3.org/2000/svg" xmlns:xlink="http://www.w3.org/1999/xlink" x="0px" y="0px"
	 width="54px" height="41px" viewBox="0 0 54 41" enable-background="new 0 0 54 41" xml:space="preserve">
<g>
	<path fill="#D5912B" d="M0,0H24.4v24H13.2v17c-2.6-0.6-2.6-0.6-3.199-0.801C4,38.199,0,32.4,0,26V0z M10.8,12L2,3.4v17.4L10.8,12z
		 M2,23.6v2.2l9.2,9.2v-5.6L3.8,21.8L2,23.6z M11.201,38.6v-0.799l-9-9c1,4.398,4.2,8,8.6,9.6L11.201,38.6z M12.201,10.6L21,1.8
		h-17.8L12.201,10.6z M11.201,26.6V22H12.4L8,17.6l-2.8,2.8L11.201,26.6z M9.4,16.2l5.8,5.8H20.8l-8.6-8.6L9.4,16.2z M13.4,12l9,9
		v-5.6l-6-6.2L13.4,12z M17.8,7.8l4.6,4.8V7l-1.8-2L17.8,7.8z M22,3.6L22.4,4.2v-1L22,3.6z M29.6,0H54v24H42.799v17
		c-2.6-0.6-2.6-0.6-3.199-0.801c-6-2-10-7.799-10-14.199V0z M40.4,12L31.6,3.4v17.4L40.4,12z M31.6,23.6v2.2l9.199,9.2v-5.6
		L33.4,21.8L31.6,23.6z M40.799,38.6v-0.799l-8.998-9c1,4.398,4.199,8,8.6,9.6L40.799,38.6z M41.799,10.6L50.6,1.8H32.801
		L41.799,10.6z M40.799,26.6V22H42l-4.4-4.4l-2.799,2.8L40.799,26.6z M39,16.2l5.799,5.8H50.4l-8.602-8.6L39,16.2z M43,12l9,9v-5.6
		l-6-6.2L43,12z M47.4,7.8l4.6,4.8V7l-1.801-2L47.4,7.8z M51.6,3.6L52,4.2v-1L51.6,3.6z"/>
</g>
</svg>
